<svg xmlns="http://www.w3.org/2000/svg" viewBox="0 0 400 400" width="400" height="400">
  <defs>
    <linearGradient id="bg" x1="0" y1="0" x2="0" y2="1">
      <stop offset="0" stop-color="#f4f7fb"/><stop offset="1" stop-color="#e4ebf4"/>
    </linearGradient>
    <radialGradient id="sh" cx="0.5" cy="0.5" r="0.5">
      <stop offset="0" stop-color="#153259" stop-opacity="0.16"/>
      <stop offset="1" stop-color="#153259" stop-opacity="0"/>
    </radialGradient>
  </defs>
  <rect width="400" height="400" fill="url(#bg)"/>
  <ellipse cx="200" cy="322" rx="118" ry="24" fill="url(#sh)"/>
  <g fill="none" stroke="#153259" stroke-width="6" stroke-linejoin="round" stroke-linecap="round">
    
    <circle cx="200" cy="200" r="112" fill="#e6ebf3"/>
    <circle cx="200" cy="200" r="112"/>
    <circle cx="200" cy="200" r="98" fill="#ffffff"/>
    <circle cx="200.0" cy="114.0" r="13" fill="#b7c4d9" stroke="#153259" stroke-width="4"/><circle cx="250.5" cy="130.4" r="13" fill="#b7c4d9" stroke="#153259" stroke-width="4"/><circle cx="281.8" cy="173.4" r="13" fill="#b7c4d9" stroke="#153259" stroke-width="4"/><circle cx="281.8" cy="226.6" r="13" fill="#b7c4d9" stroke="#153259" stroke-width="4"/><circle cx="250.5" cy="269.6" r="13" fill="#b7c4d9" stroke="#153259" stroke-width="4"/><circle cx="200.0" cy="286.0" r="13" fill="#b7c4d9" stroke="#153259" stroke-width="4"/><circle cx="149.5" cy="269.6" r="13" fill="#b7c4d9" stroke="#153259" stroke-width="4"/><circle cx="118.2" cy="226.6" r="13" fill="#b7c4d9" stroke="#153259" stroke-width="4"/><circle cx="118.2" cy="173.4" r="13" fill="#b7c4d9" stroke="#153259" stroke-width="4"/><circle cx="149.5" cy="130.4" r="13" fill="#b7c4d9" stroke="#153259" stroke-width="4"/>
    <circle cx="200" cy="200" r="60" fill="#e6ebf3"/>
    <circle cx="200" cy="200" r="60"/>
    <circle cx="200" cy="200" r="46" fill="#ffffff"/>
    
  </g>
</svg>
